<?xml version="1.0" encoding="UTF-8" standalone="no"?>
<svg
   version="1.1"
   width="745px"
   height="745px"
   style="shape-rendering:geometricPrecision; text-rendering:geometricPrecision; image-rendering:optimizeQuality; fill-rule:evenodd; clip-rule:evenodd"
   id="svg64"
   sodipodi:docname="llpmg-logo.svg"
   inkscape:version="1.3.2 (091e20e, 2023-11-25)"
   xmlns:inkscape="http://www.inkscape.org/namespaces/inkscape"
   xmlns:sodipodi="http://sodipodi.sourceforge.net/DTD/sodipodi-0.dtd"
   xmlns="http://www.w3.org/2000/svg"
   xmlns:svg="http://www.w3.org/2000/svg">
  <defs
     id="defs64" />
  <sodipodi:namedview
     id="namedview64"
     pagecolor="#505050"
     bordercolor="#eeeeee"
     borderopacity="1"
     inkscape:showpageshadow="0"
     inkscape:pageopacity="0"
     inkscape:pagecheckerboard="0"
     inkscape:deskcolor="#d1d1d1"
     showgrid="false"
     showguides="true"
     inkscape:zoom="1"
     inkscape:cx="372"
     inkscape:cy="373"
     inkscape:window-width="1744"
     inkscape:window-height="1067"
     inkscape:window-x="55"
     inkscape:window-y="25"
     inkscape:window-maximized="1"
     inkscape:current-layer="svg64" />
  <g
     id="g2"
     transform="matrix(3.5543478,0,0,3.9480515,201.77717,189.4416)"
     style="clip-rule:evenodd;fill-rule:evenodd;image-rendering:optimizeQuality;shape-rendering:geometricPrecision;text-rendering:geometricPrecision">
    <path
       style="opacity:1"
       fill="#245378"
       d="m 39.5,3.5 c 5.8441,-1.10089 11.8441,-1.10089 18,0 0.3333,0.66667 0.6667,1.33333 1,2 -3.2973,-0.1713 -3.6306,0.49536 -1,2 1.1869,-1.39379 1.8535,-1.22712 2,0.5 -1.3561,1.56708 -2.0228,3.4004 -2,5.5 2.104,-0.2989 4.104,0.0344 6,1 -1.2934,1.6026 -2.2934,3.2693 -3,5 0,-1.3333 0,-2.6667 0,-4 -2.6522,0.0905 -4.9855,-0.5762 -7,-2 C 52.4795,11.0316 50.6462,9.36497 48,8.5 46.8948,4.24633 44.0615,2.57966 39.5,3.5 Z"
       id="path2" />
  </g>
  <g
     id="g3"
     transform="matrix(3.5543478,0,0,3.9480515,201.77717,189.4416)"
     style="clip-rule:evenodd;fill-rule:evenodd;image-rendering:optimizeQuality;shape-rendering:geometricPrecision;text-rendering:geometricPrecision">
    <path
       style="opacity:1"
       fill="#233f68"
       d="m 33.5,4.5 c 1.7646,-0.96138 3.7646,-1.29472 6,-1 4.5615,-0.92034 7.3948,0.74633 8.5,5 2.6462,0.86497 4.4795,2.5316 5.5,5 -4,0.6667 -8,1.3333 -12,2 -0.9912,-1.9823 -1.9912,-3.9823 -3,-6 -0.6924,0.5253 -1.1924,1.1919 -1.5,2 -0.3095,-1.2659 -0.8095,-2.43257 -1.5,-3.5 0.8366,-1.01127 1.17,-2.17793 1,-3.5 -1,0 -2,0 -3,0 z"
       id="path3" />
  </g>
  <g
     id="g4"
     transform="matrix(3.5543478,0,0,3.9480515,201.77717,189.4416)"
     style="clip-rule:evenodd;fill-rule:evenodd;image-rendering:optimizeQuality;shape-rendering:geometricPrecision;text-rendering:geometricPrecision">
    <path
       style="opacity:1"
       fill="#2d2d4a"
       d="m 33.5,4.5 c 0.3976,2.03958 0.5642,4.03958 0.5,6 -1.3333,-0.66667 -2.3333,-1.66667 -3,-3 -5.215,3.5943 -6.215,7.9276 -3,13 0.5935,5.6753 1.2602,11.342 2,17 1.113,1.2604 1.2797,2.427 0.5,3.5 1.2308,3.649 3.2308,6.8156 6,9.5 -2.9278,-1.0914 -5.0945,-3.0914 -6.5,-6 -1.5564,-8.0519 -3.2231,-16.0519 -5,-24 -2.4389,-2.9508 -5.2722,-5.2842 -8.5,-7 4.6915,-4.8457 10.3581,-7.8457 17,-9 z"
       id="path4" />
  </g>
  <g
     id="g5"
     transform="matrix(3.5543478,0,0,3.9480515,201.77717,189.4416)"
     style="clip-rule:evenodd;fill-rule:evenodd;image-rendering:optimizeQuality;shape-rendering:geometricPrecision;text-rendering:geometricPrecision">
    <path
       style="opacity:1"
       fill="#287996"
       d="m 57.5,3.5 c 6.5271,1.59929 12.5271,4.26595 18,8 0.4528,0.9584 1.1195,1.7917 2,2.5 -3.6093,0.6249 -6.276,2.4582 -8,5.5 0.2711,-2.3211 -0.3955,-4.3211 -2,-6 1.7759,-0.8148 2.4426,-1.9815 2,-3.5 -3.1951,-2.55408 -6.8618,-4.05408 -11,-4.5 -0.3333,-0.66667 -0.6667,-1.33333 -1,-2 z"
       id="path5" />
  </g>
  <g
     id="g6"
     transform="matrix(3.5543478,0,0,3.9480515,201.77717,189.4416)"
     style="clip-rule:evenodd;fill-rule:evenodd;image-rendering:optimizeQuality;shape-rendering:geometricPrecision;text-rendering:geometricPrecision">
    <path
       style="opacity:1"
       fill="#16678b"
       d="m 58.5,5.5 c 4.1382,0.44592 7.8049,1.94592 11,4.5 0.4426,1.5185 -0.2241,2.6852 -2,3.5 1.6045,1.6789 2.2711,3.6789 2,6 -1.4269,2.5236 -2.5936,5.1902 -3.5,8 -0.3227,5.3657 -0.8227,10.6991 -1.5,16 -0.6667,0.6667 -1.3333,1.3333 -2,2 -0.4239,-4.2688 -0.5905,-8.6022 -0.5,-13 -0.7504,-0.6258 -1.5838,-1.1258 -2.5,-1.5 1.6667,-2.3333 3.3333,-4.6667 5,-7 -0.6258,-0.7504 -1.1258,-1.5838 -1.5,-2.5 -0.2204,4.0326 -2.0537,5.3659 -5.5,4 -0.4717,-2.8579 0.5283,-4.8579 3,-6 0.7066,-1.7307 1.7066,-3.3974 3,-5 -1.896,-0.9656 -3.896,-1.2989 -6,-1 -0.0228,-2.0996 0.6439,-3.93292 2,-5.5 -0.1465,-1.72712 -0.8131,-1.89379 -2,-0.5 -2.6306,-1.50464 -2.2973,-2.1713 1,-2 z"
       id="path6" />
  </g>
  <g
     id="g7"
     transform="matrix(3.5543478,0,0,3.9480515,201.77717,189.4416)"
     style="clip-rule:evenodd;fill-rule:evenodd;image-rendering:optimizeQuality;shape-rendering:geometricPrecision;text-rendering:geometricPrecision">
    <path
       style="opacity:1"
       fill="#1f254d"
       d="m 33.5,4.5 c 1,0 2,0 3,0 0.17,1.32207 -0.1634,2.48873 -1,3.5 0.6905,1.06743 1.1905,2.2341 1.5,3.5 0.3076,-0.8081 0.8076,-1.4747 1.5,-2 1.0088,2.0177 2.0088,4.0177 3,6 -2.2354,-0.2947 -4.2354,0.0386 -6,1 -1.0983,1.1009 -1.265,2.4343 -0.5,4 1.9717,0.8052 3.4717,2.1385 4.5,4 -1.8845,0.6973 -2.2178,1.6973 -1,3 -2.5744,2.1934 -2.2411,4.0267 1,5.5 -2.6667,2.6667 -2.6667,5.3333 0,8 -0.8081,0.3076 -1.4747,0.8076 -2,1.5 1.723,2.3676 2.3897,5.0342 2,8 -1,0 -2,0 -3,0 -2.7692,-2.6844 -4.7692,-5.851 -6,-9.5 0.7797,-1.073 0.613,-2.2396 -0.5,-3.5 -0.7398,-5.658 -1.4065,-11.3247 -2,-17 -3.215,-5.0724 -2.215,-9.4057 3,-13 0.6667,1.33333 1.6667,2.33333 3,3 0.0642,-1.96042 -0.1024,-3.96042 -0.5,-6 z"
       id="path7" />
  </g>
  <g
     id="g8"
     transform="matrix(3.5543478,0,0,3.9480515,201.77717,189.4416)"
     style="clip-rule:evenodd;fill-rule:evenodd;image-rendering:optimizeQuality;shape-rendering:geometricPrecision;text-rendering:geometricPrecision">
    <path
       style="opacity:1"
       fill="#3e94b6"
       d="m 82.5,19.5 c 1.6234,3.8269 2.6234,7.8269 3,12 -0.3333,0 -0.6667,0 -1,0 -0.1703,-4.6745 -2.1703,-8.3412 -6,-11 -1.4527,2.9247 -2.4527,5.9247 -3,9 -0.3333,0 -0.6667,0 -1,0 0.3333,-2.6667 0.6667,-5.3333 1,-8 0,-0.3333 0,-0.6667 0,-1 2.04,-4.5643 4.3733,-4.8977 7,-1 z"
       id="path8" />
  </g>
  <g
     id="g9"
     transform="matrix(3.5543478,0,0,3.9480515,201.77717,189.4416)"
     style="clip-rule:evenodd;fill-rule:evenodd;image-rendering:optimizeQuality;shape-rendering:geometricPrecision;text-rendering:geometricPrecision">
    <path
       style="opacity:1"
       fill="#312c48"
       d="m 15.5,16.5 c 1.965,2.2682 3.1317,4.9349 3.5,8 0.0369,6.8271 1.0369,13.4938 3,20 2.0007,2.8307 4.1673,5.4974 6.5,8 -1.65,0.5478 -3.3166,0.8811 -5,1 -1.6957,-2.7357 -2.8623,-5.7357 -3.5,-9 -1.3988,-0.7266 -2.8988,-1.2266 -4.5,-1.5 1.3963,-2.9819 2.3963,-6.4819 3,-10.5 -1.0872,-3.8039 -2.4206,-7.4706 -4,-11 -0.586,0.2093 -1.086,0.5426 -1.5,1 -2.2281,6.8492 -3.7281,13.8492 -4.5,21 0.66667,1.6667 1.33333,3.3333 2,5 -0.2538,1.9172 -1.25384,3.2505 -3,4 -1.64363,0.3102 -2.64363,1.3102 -3,3 -0.66667,0 -1,0.3333 -1,1 -0.66667,0 -1.33333,0 -2,0 1.92027,-2.8388 3.58694,-5.8388 5,-9 0.83925,-6.1747 1.50592,-12.508 2,-19 0.83264,-5.0154 3.166,-9.0154 7,-12 z"
       id="path9" />
  </g>
  <g
     id="g10"
     transform="matrix(3.5543478,0,0,3.9480515,201.77717,189.4416)"
     style="clip-rule:evenodd;fill-rule:evenodd;image-rendering:optimizeQuality;shape-rendering:geometricPrecision;text-rendering:geometricPrecision">
    <path
       style="opacity:1"
       fill="#d8f2f5"
       d="m 75.5,11.5 c 1.3221,-0.17 2.4887,0.1634 3.5,1 1.705,2.0766 2.8717,4.41 3.5,7 -2.6267,-3.8977 -4.96,-3.5643 -7,1 -0.9232,-0.8029 -1.9232,-0.9696 -3,-0.5 -1.1667,1.8333 -2.3333,3.6667 -3.5,5.5 -1.1597,5.6388 -2.1597,11.3055 -3,17 -0.3826,0.556 -0.8826,0.8893 -1.5,1 0.6773,-5.3009 1.1773,-10.6343 1.5,-16 0.9064,-2.8098 2.0731,-5.4764 3.5,-8 1.724,-3.0418 4.3907,-4.8751 8,-5.5 -0.8805,-0.7083 -1.5472,-1.5416 -2,-2.5 z"
       id="path10" />
  </g>
  <g
     id="g11"
     transform="matrix(3.5543478,0,0,3.9480515,201.77717,189.4416)"
     style="clip-rule:evenodd;fill-rule:evenodd;image-rendering:optimizeQuality;shape-rendering:geometricPrecision;text-rendering:geometricPrecision">
    <path
       style="opacity:1"
       fill="#f3f5f7"
       d="m 16.5,13.5 c 3.2278,1.7158 6.0611,4.0492 8.5,7 1.7769,7.9481 3.4436,15.9481 5,24 1.4055,2.9086 3.5722,4.9086 6.5,6 1.7646,0.9614 3.7646,1.2947 6,1 0.1665,-9.3393 -2e-4,-18.6726 -0.5,-28 -1.7517,-2.9116 -3.9183,-5.2449 -6.5,-7 8.0277,-0.331 16.0277,0.0023 24,1 -3.4718,1.3147 -5.9718,3.6481 -7.5,7 -0.4998,8.9938 -0.6664,17.9938 -0.5,27 1.9147,0.2845 3.5813,-0.0489 5,-1 2.6092,-0.9431 4.6092,-2.6097 6,-5 0.6667,-0.6667 1.3333,-1.3333 2,-2 0.6174,-0.1107 1.1174,-0.444 1.5,-1 0.8403,-5.6945 1.8403,-11.3612 3,-17 1.1667,-1.8333 2.3333,-3.6667 3.5,-5.5 1.0768,-0.4696 2.0768,-0.3029 3,0.5 0,0.3333 0,0.6667 0,1 -0.7679,0.7625 -1.2679,1.7625 -1.5,3 -0.4988,3.9862 -0.6655,7.9862 -0.5,12 -2.3529,12.0152 -9.6862,18.3486 -22,19 -0.6928,8.5378 -1.3595,17.2045 -2,26 0.825,0.8857 1.825,1.219 3,1 0,1 0,2 0,3 -5,0 -10,0 -15,0 0.3333,-0.6667 0.6667,-1.3333 1,-2 1.547,-1.2682 2.547,-2.9348 3,-5 0,-1 0,-2 0,-3 0.9907,-6.479 1.324,-13.1457 1,-20 -3.7148,0.077 -7.3815,-0.2564 -11,-1 -0.4731,-1.4063 -1.4731,-2.073 -3,-2 -2.3327,-2.5026 -4.4993,-5.1693 -6.5,-8 -1.9631,-6.5062 -2.9631,-13.1729 -3,-20 -0.3683,-3.0651 -1.535,-5.7318 -3.5,-8 -0.2373,-1.291 0.096,-2.291 1,-3 z"
       id="path11" />
  </g>
  <g
     id="g12"
     transform="matrix(3.5543478,0,0,3.9480515,201.77717,189.4416)"
     style="clip-rule:evenodd;fill-rule:evenodd;image-rendering:optimizeQuality;shape-rendering:geometricPrecision;text-rendering:geometricPrecision">
    <path
       style="opacity:1"
       fill="#89c1de"
       d="m 75.5,21.5 c -0.3333,2.6667 -0.6667,5.3333 -1,8 0,2.3333 0,4.6667 0,7 -0.3333,0 -0.6667,0 -1,0 -0.1655,-4.0138 0.0012,-8.0138 0.5,-12 0.2321,-1.2375 0.7321,-2.2375 1.5,-3 z"
       id="path12" />
  </g>
  <g
     id="g13"
     transform="matrix(3.5543478,0,0,3.9480515,201.77717,189.4416)"
     style="clip-rule:evenodd;fill-rule:evenodd;image-rendering:optimizeQuality;shape-rendering:geometricPrecision;text-rendering:geometricPrecision">
    <path
       style="opacity:1"
       fill="#1996d1"
       d="m 84.5,31.5 c 0,0.3333 0,0.6667 0,1 -1.5677,1.3695 -3.401,2.3695 -5.5,3 -0.6924,-0.5253 -1.1924,-1.1919 -1.5,-2 2.8504,-5.0362 2.3504,-5.7029 -1.5,-2 -0.4643,-0.5944 -0.631,-1.2611 -0.5,-2 0.5473,-3.0753 1.5473,-6.0753 3,-9 3.8297,2.6588 5.8297,6.3255 6,11 z"
       id="path13" />
  </g>
  <g
     id="g14"
     transform="matrix(3.5543478,0,0,3.9480515,201.77717,189.4416)"
     style="clip-rule:evenodd;fill-rule:evenodd;image-rendering:optimizeQuality;shape-rendering:geometricPrecision;text-rendering:geometricPrecision">
    <path
       style="opacity:1"
       fill="#21365d"
       d="m 35.5,16.5 c 2.5817,1.7551 4.7483,4.0884 6.5,7 0.4998,9.3274 0.6665,18.6607 0.5,28 -2.2354,0.2947 -4.2354,-0.0386 -6,-1 1,0 2,0 3,0 0.3897,-2.9658 -0.277,-5.6324 -2,-8 0.5253,-0.6924 1.1919,-1.1924 2,-1.5 -2.6667,-2.6667 -2.6667,-5.3333 0,-8 -3.2411,-1.4733 -3.5744,-3.3066 -1,-5.5 -1.2178,-1.3027 -0.8845,-2.3027 1,-3 -1.0283,-1.8615 -2.5283,-3.1948 -4.5,-4 -0.765,-1.5657 -0.5983,-2.8991 0.5,-4 z"
       id="path14" />
  </g>
  <g
     id="g15"
     transform="matrix(3.5543478,0,0,3.9480515,201.77717,189.4416)"
     style="clip-rule:evenodd;fill-rule:evenodd;image-rendering:optimizeQuality;shape-rendering:geometricPrecision;text-rendering:geometricPrecision">
    <path
       style="opacity:1"
       fill="#254964"
       d="m 53.5,13.5 c 2.0145,1.4238 4.3478,2.0905 7,2 0,1.3333 0,2.6667 0,4 -2.4717,1.1421 -3.4717,3.1421 -3,6 -0.9959,-0.0858 -1.8292,0.2476 -2.5,1 -1.2188,7.6254 -2.0521,15.2921 -2.5,23 1.599,-0.2678 2.9324,0.0655 4,1 -1.4187,0.9511 -3.0853,1.2845 -5,1 -0.1664,-9.0062 2e-4,-18.0062 0.5,-27 1.5282,-3.3519 4.0282,-5.6853 7.5,-7 -7.9723,-0.9977 -15.9723,-1.331 -24,-1 1.7646,-0.9614 3.7646,-1.2947 6,-1 4,-0.6667 8,-1.3333 12,-2 z"
       id="path15" />
  </g>
  <g
     id="g16"
     transform="matrix(3.5543478,0,0,3.9480515,201.77717,189.4416)"
     style="clip-rule:evenodd;fill-rule:evenodd;image-rendering:optimizeQuality;shape-rendering:geometricPrecision;text-rendering:geometricPrecision">
    <path
       style="opacity:1"
       fill="#0c7fc1"
       d="m 84.5,32.5 c 0,4 0,8 0,12 -1.3853,1.1138 -2.8853,2.1138 -4.5,3 -0.941,-1.5614 -2.1076,-2.8947 -3.5,-4 -0.9287,1.1888 -1.262,2.5222 -1,4 1,0 2,0 3,0 -0.1095,3.0341 -1.4428,4.0341 -4,3 -0.9656,-1.896 -1.2989,-3.896 -1,-6 0.7653,-2.5961 1.0987,-5.2628 1,-8 0,-2.3333 0,-4.6667 0,-7 0.3333,0 0.6667,0 1,0 -0.131,0.7389 0.0357,1.4056 0.5,2 3.8504,-3.7029 4.3504,-3.0362 1.5,2 0.3076,0.8081 0.8076,1.4747 1.5,2 2.099,-0.6305 3.9323,-1.6305 5.5,-3 z"
       id="path16" />
  </g>
  <g
     id="g17"
     transform="matrix(3.5543478,0,0,3.9480515,201.77717,189.4416)"
     style="clip-rule:evenodd;fill-rule:evenodd;image-rendering:optimizeQuality;shape-rendering:geometricPrecision;text-rendering:geometricPrecision">
    <path
       style="opacity:1"
       fill="#18577d"
       d="m 62.5,45.5 c -1.3908,2.3903 -3.3908,4.0569 -6,5 -1.0676,-0.9345 -2.401,-1.2678 -4,-1 0.4479,-7.7079 1.2812,-15.3746 2.5,-23 0.6708,-0.7524 1.5041,-1.0858 2.5,-1 3.4463,1.3659 5.2796,0.0326 5.5,-4 0.3742,0.9162 0.8742,1.7496 1.5,2.5 -1.6667,2.3333 -3.3333,4.6667 -5,7 0.9162,0.3742 1.7496,0.8742 2.5,1.5 -0.0905,4.3978 0.0761,8.7312 0.5,13 z"
       id="path17" />
  </g>
  <g
     id="g19"
     transform="matrix(3.5543478,0,0,3.9480515,201.77717,189.4416)"
     style="clip-rule:evenodd;fill-rule:evenodd;image-rendering:optimizeQuality;shape-rendering:geometricPrecision;text-rendering:geometricPrecision">
    <path
       style="opacity:1"
       fill="#2e204b"
       d="m 23.5,53.5 c -5.2617,-0.578 -10.595,-0.9113 -16,-1 1.74616,-0.7495 2.7462,-2.0828 3,-4 -0.66667,-1.6667 -1.33333,-3.3333 -2,-5 0.7719,-7.1508 2.2719,-14.1508 4.5,-21 0.414,-0.4574 0.914,-0.7907 1.5,-1 1.5794,3.5294 2.9128,7.1961 4,11 -0.6037,4.0181 -1.6037,7.5181 -3,10.5 1.6012,0.2734 3.1012,0.7734 4.5,1.5 0.6377,3.2643 1.8043,6.2643 3.5,9 z"
       id="path19" />
  </g>
  <g
     id="g20"
     transform="matrix(3.5543478,0,0,3.9480515,201.77717,189.4416)"
     style="clip-rule:evenodd;fill-rule:evenodd;image-rendering:optimizeQuality;shape-rendering:geometricPrecision;text-rendering:geometricPrecision">
    <path
       style="opacity:1"
       fill="#2c6896"
       d="m 73.5,36.5 c 0.3333,0 0.6667,0 1,0 0.0987,2.7372 -0.2347,5.4039 -1,8 -0.9511,1.4187 -1.2845,3.0853 -1,5 -3.971,2.6195 -8.3044,4.7862 -13,6.5 -2.24,0.977 -4.5733,1.477 -7,1.5 0,1.6667 0,3.3333 0,5 -0.3333,0 -0.6667,0 -1,0 0,-2.3333 0,-4.6667 0,-7 12.3138,-0.6514 19.6471,-6.9848 22,-19 z"
       id="path20" />
  </g>
  <g
     id="g21"
     transform="matrix(3.5543478,0,0,3.9480515,201.77717,189.4416)"
     style="clip-rule:evenodd;fill-rule:evenodd;image-rendering:optimizeQuality;shape-rendering:geometricPrecision;text-rendering:geometricPrecision">
    <path
       style="opacity:1"
       fill="#451b43"
       d="m 7.5,52.5 c 5.405,0.0887 10.7383,0.422 16,1 1.6834,-0.1189 3.35,-0.4522 5,-1 1.5269,-0.073 2.5269,0.5937 3,2 0.3333,0.6667 0.6667,1.3333 1,2 -2.9728,1.8248 -6.1395,2.1582 -9.5,1 -1.1544,2.4574 -2.4877,2.4574 -4,0 -0.3542,2.3075 -1.3542,2.6408 -3,1 -0.9503,0.5223 -1.7836,1.189 -2.5,2 -2.6843,-2.2287 -5.6843,-3.8953 -9,-5 0.35637,-1.6898 1.35637,-2.6898 3,-3 z"
       id="path21" />
  </g>
  <g
     id="g22"
     transform="matrix(3.5543478,0,0,3.9480515,201.77717,189.4416)"
     style="clip-rule:evenodd;fill-rule:evenodd;image-rendering:optimizeQuality;shape-rendering:geometricPrecision;text-rendering:geometricPrecision">
    <path
       style="opacity:1"
       fill="#0b67aa"
       d="m 84.5,44.5 c -0.4927,3.3121 -1.4927,6.4788 -3,9.5 0.1667,0.5 0.3333,1 0.5,1.5 5.8132,-1.4682 7.8132,0.8652 6,7 -0.2734,2.8931 -1.1068,5.5597 -2.5,8 0.5463,1.6347 0.8796,3.3014 1,5 -2.4726,0.4118 -3.8059,-0.5882 -4,-3 -0.6135,-1.7825 -1.7802,-3.1159 -3.5,-4 -0.3333,-1.6667 -0.6667,-3.3333 -1,-5 -1.4056,1.1682 -2.5723,0.8348 -3.5,-1 -1.1427,3.6248 -2.4761,3.7915 -4,0.5 -2.9078,-1.5957 -5.9078,-3.0957 -9,-4.5 -0.9147,0.8279 -1.5814,1.8279 -2,3 -0.3083,2.7063 0.025,5.5397 1,8.5 -0.9181,2.0865 -1.5847,4.2532 -2,6.5 -1.63,-1.5261 -2.4633,-3.5261 -2.5,-6 -0.49,1.2932 -0.6567,2.6266 -0.5,4 -0.6515,-0.5906 -1.3182,-1.2573 -2,-2 -0.987,-3.2683 -1.3204,-6.6016 -1,-10 0,-1.6667 0,-3.3333 0,-5 2.4267,-0.023 4.76,-0.523 7,-1.5 4.6956,-1.7138 9.029,-3.8805 13,-6.5 -0.2845,-1.9147 0.0489,-3.5813 1,-5 -0.2989,2.104 0.0344,4.104 1,6 2.5572,1.0341 3.8905,0.0341 4,-3 -1,0 -2,0 -3,0 -0.262,-1.4778 0.0713,-2.8112 1,-4 1.3924,1.1053 2.559,2.4386 3.5,4 1.6147,-0.8862 3.1147,-1.8862 4.5,-3 z"
       id="path22" />
  </g>
  <g
     id="g23"
     transform="matrix(3.5543478,0,0,3.9480515,201.77717,189.4416)"
     style="clip-rule:evenodd;fill-rule:evenodd;image-rendering:optimizeQuality;shape-rendering:geometricPrecision;text-rendering:geometricPrecision">
    <path
       style="opacity:1"
       fill="#6d3a52"
       d="m 31.5,54.5 c 3.6185,0.7436 7.2852,1.077 11,1 0.324,6.8543 -0.0093,13.521 -1,20 0.458,-5.3659 -0.2086,-10.5325 -2,-15.5 -0.948,-0.4828 -1.948,-0.6495 -3,-0.5 -0.5478,-2.0323 -1.8812,-3.0323 -4,-3 -0.3333,-0.6667 -0.6667,-1.3333 -1,-2 z"
       id="path23" />
  </g>
  <g
     id="g24"
     transform="matrix(3.5543478,0,0,3.9480515,201.77717,189.4416)"
     style="clip-rule:evenodd;fill-rule:evenodd;image-rendering:optimizeQuality;shape-rendering:geometricPrecision;text-rendering:geometricPrecision">
    <path
       style="opacity:1"
       fill="#2474aa"
       d="m 84.5,31.5 c 0.3333,0 0.6667,0 1,0 -1.6339,9.1499 0.3661,17.1499 6,24 0,2.6667 0,5.3333 0,8 -1,0 -2,0 -3,0 0.3023,4.2905 -0.3643,8.2905 -2,12 -0.1204,-1.6986 -0.4537,-3.3653 -1,-5 1.3932,-2.4403 2.2266,-5.1069 2.5,-8 1.8132,-6.1348 -0.1868,-8.4682 -6,-7 -0.1667,-0.5 -0.3333,-1 -0.5,-1.5 1.5073,-3.0212 2.5073,-6.1879 3,-9.5 0,-4 0,-8 0,-12 0,-0.3333 0,-0.6667 0,-1 z"
       id="path24" />
  </g>
  <g
     id="g25"
     transform="matrix(3.5543478,0,0,3.9480515,201.77717,189.4416)"
     style="clip-rule:evenodd;fill-rule:evenodd;image-rendering:optimizeQuality;shape-rendering:geometricPrecision;text-rendering:geometricPrecision">
    <path
       style="opacity:1"
       fill="#743d54"
       d="m 1.5,56.5 c 0.66667,0 1.33333,0 2,0 0.33333,0.6667 0.66667,1.3333 1,2 0.26362,4.8641 1.26362,9.5308 3,14 -0.33333,0 -0.66667,0 -1,0 -0.95583,-1.1594 -1.95583,-2.3261 -3,-3.5 0.73348,-1.7659 1.06681,-3.5992 1,-5.5 -2.0138,0.1085 -3.680466,-0.5582 -5,-2 0,-1.3333 0,-2.6667 0,-4 0.666667,-0.3333 1.333333,-0.6667 2,-1 z"
       id="path25" />
  </g>
  <g
     id="g26"
     transform="matrix(3.5543478,0,0,3.9480515,201.77717,189.4416)"
     style="clip-rule:evenodd;fill-rule:evenodd;image-rendering:optimizeQuality;shape-rendering:geometricPrecision;text-rendering:geometricPrecision">
    <path
       style="opacity:1"
       fill="#601f45"
       d="m 4.5,55.5 c 3.3157,1.1047 6.3157,2.7713 9,5 0.7164,-0.811 1.5497,-1.4777 2.5,-2 1.6458,1.6408 2.6458,1.3075 3,-1 1.5123,2.4574 2.8456,2.4574 4,0 3.3605,1.1582 6.5272,0.8248 9.5,-1 2.1188,-0.0323 3.4522,0.9677 4,3 -1.8432,0.7829 -3.8432,1.4495 -6,2 -0.586,-0.2093 -1.086,-0.5426 -1.5,-1 -0.23,3.9828 -1.5634,4.6494 -4,2 -2.2504,-0.1948 -4.5837,0.1385 -7,1 -4.7108,-1.2995 -9.21084,-2.9662 -13.5,-5 -0.33333,-0.6667 -0.66667,-1.3333 -1,-2 0,-0.6667 0.33333,-1 1,-1 z"
       id="path26" />
  </g>
  <g
     id="g27"
     transform="matrix(3.5543478,0,0,3.9480515,201.77717,189.4416)"
     style="clip-rule:evenodd;fill-rule:evenodd;image-rendering:optimizeQuality;shape-rendering:geometricPrecision;text-rendering:geometricPrecision">
    <path
       style="opacity:1"
       fill="#0a5da3"
       d="m 82.5,72.5 c -3.2143,1.0538 -6.0477,2.7204 -8.5,5 -1.3988,-0.7266 -2.8988,-1.2266 -4.5,-1.5 0.8081,-0.3076 1.4747,-0.8076 2,-1.5 -1.3631,-1.3928 -2.1964,-3.0595 -2.5,-5 -1,1.3333 -2,1.3333 -3,0 -0.8333,1.6667 -1.6667,3.3333 -2.5,5 0.5253,0.6924 1.1919,1.1924 2,1.5 -2.264,0.2362 -4.4307,0.7362 -6.5,1.5 -0.3988,-0.2284 -0.5654,-0.5618 -0.5,-1 0.4153,-2.2468 1.0819,-4.4135 2,-6.5 -0.975,-2.9603 -1.3083,-5.7937 -1,-8.5 0.4186,-1.1721 1.0853,-2.1721 2,-3 3.0922,1.4043 6.0922,2.9043 9,4.5 1.5239,3.2915 2.8573,3.1248 4,-0.5 0.9277,1.8348 2.0944,2.1682 3.5,1 0.3333,1.6667 0.6667,3.3333 1,5 1.7198,0.8841 2.8865,2.2175 3.5,4 z"
       id="path27" />
  </g>
  <g
     id="g29"
     transform="matrix(3.5543478,0,0,3.9480515,201.77717,189.4416)"
     style="clip-rule:evenodd;fill-rule:evenodd;image-rendering:optimizeQuality;shape-rendering:geometricPrecision;text-rendering:geometricPrecision">
    <path
       style="opacity:1"
       fill="#752444"
       d="m 4.5,58.5 c 4.28916,2.0338 8.7892,3.7005 13.5,5 2.4163,-0.8615 4.7496,-1.1948 7,-1 2.4366,2.6494 3.77,1.9828 4,-2 0.414,0.4574 0.914,0.7907 1.5,1 2.1568,-0.5505 4.1568,-1.2171 6,-2 1.052,-0.1495 2.052,0.0172 3,0.5 1.7914,4.9675 2.458,10.1341 2,15.5 0,1 0,2 0,3 -1.2682,-2.4052 -1.9349,-5.0718 -2,-8 -1.7012,0.4662 -3.2012,0.4662 -4.5,0 -2.9537,2.4715 -5.9537,2.4715 -9,0 -0.6891,0.8567 -1.5224,1.5233 -2.5,2 -5.1517,-4.9755 -10.4851,-4.9755 -16,0 -1.73638,-4.4692 -2.73638,-9.1359 -3,-14 z"
       id="path29" />
  </g>
  <g
     id="g31"
     transform="matrix(3.5543478,0,0,3.9480515,201.77717,189.4416)"
     style="clip-rule:evenodd;fill-rule:evenodd;image-rendering:optimizeQuality;shape-rendering:geometricPrecision;text-rendering:geometricPrecision">
    <path
       style="opacity:1"
       fill="#1a5384"
       d="m 51.5,62.5 c 0.3333,0 0.6667,0 1,0 -0.3204,3.3984 0.013,6.7317 1,10 0.6818,0.7427 1.3485,1.4094 2,2 -0.3132,3.9126 0.3534,7.5793 2,11 -0.6667,0 -1.3333,0 -2,0 -1.4073,-1.8083 -2.574,-3.8083 -3.5,-6 -0.4994,-5.6569 -0.6661,-11.3236 -0.5,-17 z"
       id="path31" />
  </g>
  <g
     id="g32"
     transform="matrix(3.5543478,0,0,3.9480515,201.77717,189.4416)"
     style="clip-rule:evenodd;fill-rule:evenodd;image-rendering:optimizeQuality;shape-rendering:geometricPrecision;text-rendering:geometricPrecision">
    <path
       style="opacity:1"
       fill="#155393"
       d="m 82.5,72.5 c 0.1941,2.4118 1.5274,3.4118 4,3 -2.3046,2.9075 -3.6379,6.2408 -4,10 -8.3333,0 -16.6667,0 -25,0 -1.6466,-3.4207 -2.3132,-7.0874 -2,-11 -0.1567,-1.3734 0.01,-2.7068 0.5,-4 0.0367,2.4739 0.87,4.4739 2.5,6 -0.0654,0.4382 0.1012,0.7716 0.5,1 2.0693,-0.7638 4.236,-1.2638 6.5,-1.5 -0.8081,-0.3076 -1.4747,-0.8076 -2,-1.5 0.8333,-1.6667 1.6667,-3.3333 2.5,-5 1,1.3333 2,1.3333 3,0 0.3036,1.9405 1.1369,3.6072 2.5,5 -0.5253,0.6924 -1.1919,1.1924 -2,1.5 1.6012,0.2734 3.1012,0.7734 4.5,1.5 2.4523,-2.2796 5.2857,-3.9462 8.5,-5 z"
       id="path32" />
  </g>
  <g
     id="g33"
     transform="matrix(3.5543478,0,0,3.9480515,201.77717,189.4416)"
     style="clip-rule:evenodd;fill-rule:evenodd;image-rendering:optimizeQuality;shape-rendering:geometricPrecision;text-rendering:geometricPrecision">
    <path
       style="opacity:1"
       fill="#872c40"
       d="m 41.5,78.5 c -0.453,2.0652 -1.453,3.7318 -3,5 0.17,-1.3221 -0.1634,-2.4887 -1,-3.5 -8.9058,0.1097 -17.5725,-0.0569 -26,-0.5 0,2 0,4 0,6 -0.6667,0 -1.3333,0 -2,0 C 9.66331,83.1432 9.49665,80.8098 9,78.5 7.43699,77.2748 6.27032,75.7748 5.5,74 c 0.06993,-0.7648 0.40326,-1.2648 1,-1.5 0.33333,0 0.66667,0 1,0 5.5149,-4.9755 10.8483,-4.9755 16,0 0.9776,-0.4767 1.8109,-1.1433 2.5,-2 3.0463,2.4715 6.0463,2.4715 9,0 1.2988,0.4662 2.7988,0.4662 4.5,0 0.0651,2.9282 0.7318,5.5948 2,8 z"
       id="path33" />
  </g>
  <g
     id="g34"
     transform="matrix(3.5543478,0,0,3.9480515,201.77717,189.4416)"
     style="clip-rule:evenodd;fill-rule:evenodd;image-rendering:optimizeQuality;shape-rendering:geometricPrecision;text-rendering:geometricPrecision">
    <path
       style="opacity:1"
       fill="#9d3642"
       d="m 38.5,83.5 c -0.3333,0.6667 -0.6667,1.3333 -1,2 -8.6667,0 -17.3333,0 -26,0 0,-2 0,-4 0,-6 8.4275,0.4431 17.0942,0.6097 26,0.5 0.8366,1.0113 1.17,2.1779 1,3.5 z"
       id="path34" />
  </g>
  <g
     id="g35"
     transform="matrix(3.5543478,0,0,3.9480515,201.77717,189.4416)"
     style="clip-rule:evenodd;fill-rule:evenodd;image-rendering:optimizeQuality;shape-rendering:geometricPrecision;text-rendering:geometricPrecision">
    <path
       style="opacity:1"
       fill="#c2d6e6"
       d="m 51.5,55.5 c 0,2.3333 0,4.6667 0,7 -0.1661,5.6764 6e-4,11.3431 0.5,17 0.926,2.1917 2.0927,4.1917 3.5,6 -1,0 -2,0 -3,0 0,-1 0,-2 0,-3 -1.175,0.219 -2.175,-0.1143 -3,-1 0.6405,-8.7955 1.3072,-17.4622 2,-26 z"
       id="path35" />
  </g>
</svg>
